<svg width="554" height="547" viewBox="0 0 554 547" fill="none" xmlns="http://www.w3.org/2000/svg">
<path d="M21.2323 3.85168C21.2323 60.9042 21.8402 83.8323 21.8402 144.507M21.8402 144.507C21.8402 205.182 21.7462 315.769 21.2323 390.094C20.7184 464.419 20.3196 536.764 20.3196 536.764C20.3196 547.263 19.1955 534.874 19.2775 529.288C19.38 522.306 20.3635 323.648 20.3635 306.305C20.3635 288.963 21.2323 200.681 21.8402 144.507Z" stroke="black" stroke-width="6" stroke-miterlimit="10" stroke-linecap="round" stroke-linejoin="round"/>
<path d="M446.793 528.582C530.238 528.582 518.583 528.582 546 528.582C545.528 528.855 541.277 529.9 539.523 530.112C537.33 530.376 479.801 530.232 467.523 530.232C425.493 530.232 235.627 529.245 223.201 529.245M446.793 528.582C446.793 528.582 245.533 530.232 213.434 530.232C181.335 530.232 188.927 530.276 121.163 530.232C70.5005 530.198 9.92004 530.232 5.84339 530.232C1.76674 530.232 3.27097 528.253 3.27097 528.253C31.7666 529.245 81.3594 529.245 146.492 529.245C168.936 529.245 195.189 529.245 223.201 529.245M446.793 528.582C385.791 528.582 299.336 529.245 223.201 529.245" stroke="black" stroke-width="6" stroke-miterlimit="10" stroke-linecap="round" stroke-linejoin="round"/>
<path d="M531.447 274.524C531.447 340.918 532.8 382.692 532.8 426.103C532.8 469.515 532.109 543.059 532.109 543.059C532.109 543.059 530.517 546.158 530.517 540.102C530.517 534.046 531.558 490.992 531.447 429.118C531.335 367.244 531.34 302.408 531.447 274.524ZM531.447 274.524C531.446 243.225 530.724 179.292 530.767 143.716C530.814 103.822 530.767 46.3728 530.767 7.85168" stroke="black" stroke-width="6" stroke-miterlimit="10" stroke-linecap="round" stroke-linejoin="round"/>
<path d="M13.9998 17.7138C43.2194 17.7138 68.7129 17.7138 83.744 17.7138M83.744 17.7138C98.7752 17.7138 165.513 18.0053 193.772 18.0053M83.744 17.7138C83.744 17.7138 116.34 16.8063 135.451 16.8063C154.562 16.8063 193.772 18.0053 193.772 18.0053M551 18.0053C521.093 18.0053 534.921 17.7138 505.217 17.7138C488.285 17.7138 467.571 18.1997 437.877 18.0053M273.314 16.8063C293.864 16.8344 401.276 17.7658 437.877 18.0053M273.314 16.8063C252.061 16.7773 222.03 18.0053 193.772 18.0053M273.314 16.8063C273.314 16.8063 324.843 16.8063 353.703 16.8063M437.877 18.0053C437.877 18.0053 382.563 16.8063 353.703 16.8063M193.772 18.0053C211.092 18.0053 251.25 18.0053 273.314 18.0053C295.378 18.0053 336.1 17.206 353.703 16.8063" stroke="black" stroke-width="6" stroke-miterlimit="10" stroke-linecap="round" stroke-linejoin="round"/>
</svg>
