<svg width="310" height="195" viewBox="0 0 310 195" fill="none" xmlns="http://www.w3.org/2000/svg">
<g clip-path="url(#clip0_1_972)">
<g filter="url(#filter0_d_1_972)">
<path d="M176.914 86.0781L177.237 87.0056C191.919 84.8445 212.817 88.0024 229.94 96.7571L230.167 96.3119L229.94 96.7571C240.093 101.948 248.878 109.07 254.307 118.133C259.728 127.183 261.825 138.202 258.557 151.252L258.556 151.253C258.471 151.594 258.124 151.804 257.781 151.719C257.439 151.633 257.229 151.284 257.315 150.94C260.495 138.239 258.424 127.475 253.077 118.628C247.738 109.795 239.155 102.908 229.355 97.8975C219.466 92.8418 208.306 89.6636 197.854 88.3307C187.41 86.9987 177.631 87.5039 170.517 89.8547L170.516 89.8548C170.173 89.9685 169.981 89.8908 169.87 89.8153C169.732 89.7228 169.655 89.5884 169.636 89.5491L169.635 89.5485C169.602 89.4812 169.553 89.3621 169.555 89.2271C169.556 89.113 169.592 88.9477 169.8 88.7557L169.8 88.7558C169.8 88.7558 169.807 88.7493 169.826 88.7351C169.846 88.7201 169.873 88.7009 169.907 88.6771C169.976 88.6293 170.069 88.569 170.183 88.4967C170.411 88.3522 170.715 88.1674 171.076 87.9528C171.796 87.524 172.73 86.9833 173.704 86.4234C174.36 86.0467 175.035 85.6607 175.675 85.2949C176.932 84.5768 178.053 83.936 178.627 83.5935C179.3 83.1928 180.26 82.6926 181.408 82.0966L181.516 82.0404C182.633 81.4607 183.91 80.7978 185.233 80.0653C187.96 78.5564 190.919 76.7345 193.124 74.6985C194.372 73.5484 195.433 72.2944 195.943 70.9495C196.466 69.5704 196.398 68.1185 195.431 66.6617C194.456 65.1905 192.964 64.3674 191.189 63.9926C189.423 63.6198 187.351 63.6832 185.149 63.9982L185.149 63.9982C179.506 64.8062 172.803 67.4305 167.032 70.3212C161.269 73.208 156.355 76.4011 154.309 78.39L154.309 78.3903C154.054 78.6378 153.65 78.6314 153.404 78.3791L153.404 78.379C153.157 78.1254 153.162 77.7208 153.417 77.4724C155.432 75.5121 160.435 72.2352 166.413 69.2326C172.384 66.2339 179.248 63.5495 184.967 62.7309C190.306 61.9666 194.477 62.9043 196.498 65.9524C197.622 67.6471 197.798 69.2953 197.318 70.8887C196.831 72.5076 195.653 74.1095 193.992 75.6405L193.992 75.6406C191.818 77.6468 188.87 79.481 186.087 81.0331C184.723 81.7943 183.406 82.4835 182.247 83.0899L182.187 83.1211C181.02 83.7318 180.006 84.2633 179.285 84.6933C178.822 84.9679 177.941 85.4842 176.914 86.0781Z" fill="black" stroke="black"/>
<path d="M258.235 151.243L257.633 149.958C257.372 149.402 257.117 148.848 256.863 148.295C255.995 146.409 255.138 144.547 254.118 142.749L254.118 142.749C250.605 136.551 245.648 130.868 239.645 127.04C239.344 126.85 238.949 126.939 238.758 127.235C238.568 127.536 238.657 127.931 238.954 128.121C244.813 131.852 249.607 137.389 253.003 143.38L253.003 143.381C254.031 145.197 254.905 147.098 255.769 148.979C256.191 149.899 256.612 150.813 257.047 151.711C257.062 151.741 257.097 151.818 257.144 151.919C257.215 152.072 257.313 152.283 257.406 152.476C257.489 152.649 257.574 152.821 257.648 152.961C257.686 153.031 257.718 153.09 257.745 153.136C257.77 153.178 257.783 153.196 257.786 153.201C257.787 153.201 257.787 153.202 257.787 153.201L257.789 153.204C257.931 153.378 258.067 153.437 258.17 153.459C258.284 153.483 258.392 153.469 258.468 153.45L258.474 153.449L258.474 153.449C258.589 153.423 258.725 153.365 258.863 153.224C258.963 153.119 259.182 152.779 259.385 152.18L259.386 152.178C259.721 151.199 260.123 149.485 260.475 147.889C260.582 147.404 260.685 146.927 260.78 146.487C260.991 145.512 261.162 144.72 261.249 144.429C261.249 144.429 261.249 144.429 261.249 144.429L261.728 144.573C264.15 136.53 267.613 129.34 271.202 121.887C271.686 120.883 272.171 119.876 272.656 118.86L258.235 151.243ZM258.235 151.243L258.571 149.864C259.112 147.644 259.863 144.589 260.024 144.06L260.025 144.058C262.478 135.906 265.987 128.617 269.646 121.013C270.113 120.045 270.581 119.071 271.051 118.09C271.204 117.77 271.586 117.636 271.903 117.788C272.22 117.94 272.357 118.324 272.205 118.645L258.235 151.243Z" fill="black" stroke="black"/>
</g>
</g>
<path d="M26.5479 72.4031C25.6713 73.8024 26.9271 77.8122 28.7001 79.2897C30.0602 80.3947 31.0665 79.888 31.3315 77.948C31.6359 75.9033 30.1377 73.0006 28.4323 72.2711C27.1328 71.7009 26.9764 71.7296 26.5479 72.4031Z" fill="black"/>
<path d="M14.8404 73.3338C13.9637 74.733 15.2196 78.7429 16.9926 80.2204C18.3527 81.3254 19.359 80.8186 19.624 78.8786C19.9284 76.8339 18.4302 73.9313 16.7248 73.2018C15.4253 72.6315 15.2688 72.6603 14.8404 73.3338Z" fill="black"/>
<path d="M9.88193 84.7075C10.2414 86.9226 14.3541 91.0018 18.0101 92.7375C19.1376 93.3003 21.0826 93.7031 22.8021 93.7769C25.5025 93.8751 25.8859 93.7851 29.3741 92.1786C32.7215 90.637 33.2387 90.2689 34.844 88.4042C36.889 85.9907 38.8424 80.8058 38.2223 79.3601C37.6796 78.095 36.8918 78.7176 35.3133 81.8252C33.5656 85.2272 32.5918 86.4981 30.558 87.9541C28.6144 89.3254 24.9796 90.3934 22.6935 90.2776C19.9776 90.1433 14.8713 87.3874 12.0947 84.5541C10.6811 83.1275 9.64514 83.1717 9.88193 84.7075Z" fill="black"/>
<g filter="url(#filter1_d_1_972)">
<path d="M58.6473 85.2553L48.1353 67.6853L51.6217 66.1762L60.4352 81.5742L60.9143 81.3669L56.2526 64.1719L62.3206 61.5455L71.6663 76.7131L72.1454 76.5058L66.9514 59.5411L70.4379 58.0321L76.0529 77.7217L69.9849 80.3481L60.4246 64.8309L59.9456 65.0382L64.7153 82.6289L58.6473 85.2553ZM85.2783 74.1711C84.3379 74.5781 83.426 74.7832 82.5426 74.7863C81.6515 74.7718 80.8498 74.55 80.1374 74.121C79.4351 73.6665 78.8882 72.9869 78.4965 72.082C78.1049 71.1771 77.9914 70.3309 78.1561 69.5434C78.3309 68.7304 78.7345 68.008 79.3669 67.3761C80.0093 66.7189 80.8273 66.1752 81.8209 65.7451L85.4404 64.1785L85.1179 63.4333C84.8491 62.8123 84.4351 62.3911 83.8758 62.1698C83.3088 61.9306 82.5995 61.9954 81.7479 62.364C80.9139 62.7249 80.3774 63.1889 80.1383 63.7558C79.8915 64.3051 79.8365 64.9082 79.9734 65.5652L76.437 65.8635C76.358 65.0971 76.4302 64.3391 76.6535 63.5894C76.8868 62.8143 77.3208 62.0892 77.9556 61.4142C78.6004 60.7138 79.4906 60.1178 80.6261 59.6263C82.3649 58.8737 83.9281 58.7132 85.3157 59.1449C86.7034 59.5766 87.7543 60.6174 88.4685 62.2675L90.5995 67.1911C90.8299 67.7234 91.1935 67.882 91.6903 67.667L92.7549 67.2062L93.9529 69.9741L91.7173 70.9417C91.0608 71.2258 90.4506 71.3004 89.8865 71.1653C89.3224 71.0302 88.9252 70.6966 88.6948 70.1643L88.6833 70.1377L88.1777 70.3565C88.1988 70.6002 88.162 70.9532 88.0672 71.4155C87.9647 71.8602 87.7049 72.3307 87.2879 72.8273C86.8708 73.3238 86.2009 73.7717 85.2783 74.1711ZM84.6888 71.203C85.6292 70.796 86.2808 70.2085 86.6436 69.4405C87.0164 68.6472 87.0147 67.8158 86.6384 66.9464L86.5232 66.6802L83.1433 68.1432C82.5223 68.412 82.0919 68.7562 81.8523 69.176C81.6126 69.5957 81.5965 70.0451 81.8038 70.5241C82.0112 71.0032 82.3664 71.3129 82.8696 71.4532C83.3727 71.5936 83.9791 71.5102 84.6888 71.203ZM96.4047 68.9128L90.6911 55.7123L93.9913 54.2839L94.74 56.0138L95.2191 55.8065C95.2323 55.253 95.4434 54.6455 95.8523 53.984C96.2535 53.3048 97.0484 52.7079 98.2372 52.1933C99.2663 51.7479 100.266 51.5996 101.236 51.7485C102.217 51.8719 103.1 52.2584 103.887 52.908C104.666 53.5398 105.294 54.4058 105.77 55.5058L109.179 63.3836L105.826 64.835L102.532 57.2234C102.101 56.2298 101.531 55.5921 100.819 55.3104C100.125 55.0209 99.3252 55.072 98.4203 55.4637C97.3912 55.9091 96.7425 56.6007 96.4743 57.5384C96.1983 58.4583 96.3253 59.5304 96.8552 60.7547L99.7581 67.4614L96.4047 68.9128ZM112.805 61.8145L107.091 48.614L110.391 47.1856L111.14 48.9155L111.619 48.7082C111.632 48.1547 111.843 47.5472 112.252 46.8857C112.653 46.2064 113.448 45.6096 114.637 45.095C115.666 44.6496 116.666 44.5013 117.636 44.6502C118.616 44.7736 119.5 45.1601 120.287 45.8097C121.066 46.4415 121.693 47.3075 122.17 48.4075L125.579 56.2853L122.226 57.7367L118.931 50.1251C118.501 49.1315 117.93 48.4938 117.219 48.2121C116.524 47.9226 115.725 47.9737 114.82 48.3654C113.791 48.8108 113.142 49.5023 112.874 50.4401C112.598 51.36 112.725 52.4321 113.255 53.6564L116.158 60.3631L112.805 61.8145ZM133.464 53.3148C132.524 53.7219 131.612 53.927 130.729 53.9301C129.837 53.9156 129.036 53.6938 128.323 53.2648C127.621 52.8103 127.074 52.1307 126.682 51.2258C126.291 50.3209 126.177 49.4747 126.342 48.6872C126.517 47.8742 126.92 47.1518 127.553 46.5199C128.195 45.8626 129.013 45.319 130.007 44.8889L133.626 43.3223L133.304 42.5771C133.035 41.9561 132.621 41.5349 132.062 41.3135C131.495 41.0744 130.785 41.1391 129.934 41.5078C129.1 41.8687 128.563 42.3327 128.324 42.8996C128.077 43.4489 128.022 44.052 128.159 44.709L124.623 45.0073C124.544 44.2409 124.616 43.4829 124.839 42.7332C125.073 41.9581 125.507 41.233 126.142 40.558C126.786 39.8575 127.677 39.2616 128.812 38.7701C130.551 38.0175 132.114 37.857 133.502 38.2887C134.889 38.7204 135.94 39.7612 136.654 41.4113L138.785 46.3349C139.016 46.8672 139.379 47.0258 139.876 46.8108L140.941 46.35L142.139 49.1178L139.903 50.0855C139.247 50.3696 138.636 50.4442 138.072 50.3091C137.508 50.174 137.111 49.8404 136.881 49.3081L136.869 49.2815L136.364 49.5003C136.385 49.744 136.348 50.097 136.253 50.5593C136.151 51.004 135.891 51.4745 135.474 51.9711C135.057 52.4676 134.387 52.9155 133.464 53.3148ZM132.875 50.3468C133.815 49.9398 134.467 49.3523 134.83 48.5843C135.202 47.7909 135.201 46.9596 134.824 46.0902L134.709 45.824L131.329 47.287C130.708 47.5558 130.278 47.9 130.038 48.3197C129.799 48.7395 129.782 49.1889 129.99 49.6679C130.197 50.147 130.552 50.4567 131.055 50.597C131.559 50.7374 132.165 50.654 132.875 50.3468ZM150.13 46.1013C148.409 46.8462 146.838 47.0841 145.415 46.815C143.992 46.546 142.866 45.7694 142.037 44.4853L144.778 42.3506C145.171 42.9179 145.586 43.3175 146.024 43.5495C146.479 43.7738 146.954 43.8736 147.449 43.849C147.954 43.7989 148.464 43.6626 148.978 43.4399C149.759 43.102 150.278 42.7193 150.536 42.2919C150.785 41.8467 150.822 41.4201 150.645 41.012C150.469 40.604 150.157 40.3703 149.71 40.3109C149.255 40.2339 148.607 40.2933 147.765 40.4893L146.962 40.6787C145.962 40.9006 145.016 41.0259 144.122 41.0545C143.221 41.0653 142.421 40.8956 141.722 40.5452C141.022 40.1949 140.484 39.585 140.108 38.7156C139.54 37.4027 139.585 36.1929 140.244 35.0862C140.895 33.9618 142.001 33.0617 143.562 32.3859C145.035 31.7485 146.401 31.5468 147.661 31.7809C148.921 32.0151 149.932 32.5991 150.695 33.5331L147.995 35.839C147.562 35.2262 147.062 34.8739 146.495 34.782C145.946 34.6824 145.353 34.7708 144.714 35.0473C144.075 35.3238 143.637 35.6503 143.4 36.0268C143.155 36.3857 143.117 36.7602 143.286 37.1506C143.47 37.5764 143.786 37.819 144.233 37.8783C144.672 37.9199 145.217 37.8633 145.866 37.7087L146.669 37.5192C147.739 37.2666 148.739 37.1183 149.668 37.0744C150.607 37.005 151.426 37.1455 152.125 37.4958C152.835 37.8208 153.389 38.4445 153.788 39.3672C154.387 40.7511 154.346 42.0434 153.665 43.2441C152.994 44.4193 151.816 45.3717 150.13 46.1013ZM158.443 42.0608L152.73 28.8602L156.083 27.4088L161.797 40.6093L158.443 42.0608ZM153.738 26.5909C153.135 26.852 152.536 26.8795 151.941 26.6735C151.364 26.4598 150.938 26.0335 150.661 25.3948C150.385 24.7561 150.366 24.1532 150.605 23.5863C150.862 23.0116 151.292 22.5937 151.895 22.3326C152.516 22.0638 153.115 22.0363 153.692 22.25C154.269 22.4637 154.696 22.89 154.973 23.5287C155.249 24.1674 155.268 24.7703 155.029 25.3372C154.789 25.9042 154.359 26.3221 153.738 26.5909ZM165.513 39.0009L159.799 25.8004L163.099 24.372L163.848 26.1019L164.327 25.8946C164.34 25.3411 164.551 24.7336 164.96 24.0721C165.362 23.3929 166.157 22.796 167.345 22.2814C168.374 21.836 169.374 21.6877 170.344 21.8366C171.325 21.96 172.208 22.3465 172.995 22.9961C173.774 23.6279 174.402 24.4939 174.878 25.5939L178.288 33.4717L174.934 34.9231L171.64 27.3115C171.21 26.3179 170.639 25.6802 169.927 25.3985C169.233 25.109 168.433 25.1601 167.528 25.5518C166.499 25.9972 165.851 26.6888 165.582 27.6265C165.306 28.5464 165.433 29.6185 165.963 30.8428L168.866 37.5495L165.513 39.0009ZM178.44 25.632L178.256 25.2062C177.657 23.8223 177.421 22.5234 177.549 21.3095C177.669 20.0778 178.07 19.0089 178.752 18.1027C179.444 17.1711 180.332 16.471 181.414 16.0026C182.62 15.4804 183.626 15.2978 184.432 15.4548C185.237 15.6119 185.881 15.8596 186.365 16.1981L186.844 15.9907L186.153 14.3939L189.453 12.9655L196.18 28.5081C196.572 29.4129 196.617 30.2467 196.315 31.0094C196.021 31.7898 195.43 32.372 194.543 32.7559L185.707 36.5804L184.44 33.6528L192.105 30.3353C192.601 30.1202 192.735 29.7466 192.504 29.2143L191.018 25.7811L190.539 25.9884C190.485 26.3491 190.363 26.7494 190.174 27.1892C189.978 27.6114 189.655 28.0352 189.208 28.4607C188.76 28.8863 188.128 29.2757 187.312 29.629C186.229 30.0974 185.116 30.274 183.97 30.1588C182.835 30.0182 181.781 29.579 180.809 28.8412C179.829 28.0857 179.039 27.016 178.44 25.632ZM187.003 26.2867C188.032 25.8413 188.75 25.1406 189.158 24.1846C189.566 23.2287 189.512 22.1563 188.998 20.9675L188.883 20.7014C188.361 19.4949 187.615 18.722 186.647 18.3828C185.688 18.0181 184.686 18.0623 183.639 18.5154C182.61 18.9608 181.892 19.6615 181.484 20.6175C181.068 21.5558 181.122 22.6281 181.644 23.8346L181.759 24.1008C182.273 25.2895 183.019 26.0624 183.995 26.4194C184.971 26.7764 185.974 26.7321 187.003 26.2867ZM198.884 24.5568L190.821 5.92702L194.174 4.47559L197.227 11.5283L197.706 11.321C197.725 10.9756 197.824 10.5958 198.003 10.1813C198.181 9.76689 198.481 9.36345 198.901 8.97099C199.331 8.55312 199.936 8.17523 200.717 7.83733C201.746 7.39192 202.746 7.24363 203.716 7.39246C204.696 7.51587 205.58 7.90238 206.366 8.55197C207.146 9.18383 207.773 10.0498 208.249 11.1498L211.659 19.0276L208.306 20.479L205.011 12.8674C204.581 11.8738 204.01 11.2361 203.298 10.9544C202.604 10.6649 201.805 10.716 200.9 11.1077C199.871 11.5531 199.222 12.2446 198.954 13.1824C198.678 14.1023 198.805 15.1744 199.335 16.3987L202.238 23.1054L198.884 24.5568Z" fill="black"/>
</g>
<defs>
<filter id="filter0_d_1_972" x="151.722" y="61.9785" width="121.045" height="95.993" filterUnits="userSpaceOnUse" color-interpolation-filters="sRGB">
<feFlood flood-opacity="0" result="BackgroundImageFix"/>
<feColorMatrix in="SourceAlpha" type="matrix" values="0 0 0 0 0 0 0 0 0 0 0 0 0 0 0 0 0 0 127 0" result="hardAlpha"/>
<feOffset dx="-1" dy="4"/>
<feComposite in2="hardAlpha" operator="out"/>
<feColorMatrix type="matrix" values="0 0 0 0 0 0 0 0 0 0 0 0 0 0 0 0 0 0 1 0"/>
<feBlend mode="normal" in2="BackgroundImageFix" result="effect1_dropShadow_1_972"/>
<feBlend mode="normal" in="SourceGraphic" in2="effect1_dropShadow_1_972" result="shape"/>
</filter>
<filter id="filter1_d_1_972" x="47.9741" y="0.0251465" width="165.989" height="95.6127" filterUnits="userSpaceOnUse" color-interpolation-filters="sRGB">
<feFlood flood-opacity="0" result="BackgroundImageFix"/>
<feColorMatrix in="SourceAlpha" type="matrix" values="0 0 0 0 0 0 0 0 0 0 0 0 0 0 0 0 0 0 127 0" result="hardAlpha"/>
<feOffset dy="4"/>
<feComposite in2="hardAlpha" operator="out"/>
<feColorMatrix type="matrix" values="0 0 0 0 0.906944 0 0 0 0 0.906944 0 0 0 0 0.906944 0 0 0 0.32 0"/>
<feBlend mode="normal" in2="BackgroundImageFix" result="effect1_dropShadow_1_972"/>
<feBlend mode="normal" in="SourceGraphic" in2="effect1_dropShadow_1_972" result="shape"/>
</filter>
<clipPath id="clip0_1_972">
<rect width="130" height="130" fill="white" transform="translate(213.916 11) rotate(42.6258)"/>
</clipPath>
</defs>
</svg>
